<?xml version="1.0" encoding="UTF-8"?><svg id="Layer_1" xmlns="http://www.w3.org/2000/svg" viewBox="0 0 1000 550"><defs><style>.cls-1{fill:#2faceb;}</style></defs><path class="cls-1" d="m320.37,465.55c-5.6,0-10.64-4.48-10.64-10.64,0-10.08,1.12-27.44,4.48-47.04l-30.24-30.8c-44.24,52.08-49.28,126.56-49.84,153.44,0,5.6,4.48,10.64,10.64,10.64,26.88-.56,101.36-5.6,153.44-49.84l-30.8-30.24c-19.6,3.36-36.96,3.92-47.04,4.48h0Z"/><path class="cls-1" d="m647.41,349.07l-1.12-2.8c125.44-132.72,123.2-269.92,117.6-316.4-1.12-10.08-8.96-17.92-19.04-19.04-46.48-5.6-183.68-7.84-316.4,117.6l-2.24-.56c-43.68-20.16-94.64-10.64-128.8,22.96l-48.72,48.72c-11.2,11.2-7.84,29.68,6.16,35.84l78.96,36.4-26.88,42.56c-6.16,10.08-5.04,23.52,3.92,32.48l117.6,117.6c8.4,8.4,21.84,10.08,32.48,3.92l42.56-26.88,36.4,78.96c6.72,14,25.2,17.36,35.84,6.16l48.72-48.72c34.16-34.16,43.12-85.68,22.96-128.8h0Zm-111.44-109.76c-23.52-23.52-23.52-61.04,0-84.56,23.52-23.52,61.04-23.52,84.56,0,23.52,23.52,22.96,61.04,0,84.56-22.96,22.96-61.04,22.96-84.56,0Z"/></svg>